<svg xmlns="http://www.w3.org/2000/svg" xmlns:xlink="http://www.w3.org/1999/xlink" version="1.1" x="0px" y="0px" viewBox="0 0 100 100" enable-background="new 0 0 100 100" xml:space="preserve"><g><path d="M48.227,42.016c-2.738-0.35-5.412-1.432-7.513-3.024l2.483-3.629c1.719,1.305,3.311,2.196,5.188,2.579v-5.062   c-4.584-1.242-6.844-2.961-6.844-6.749v-0.064c0-3.501,2.674-5.826,6.686-6.24v-1.847h3.311v1.942   c2.26,0.287,4.17,1.114,5.921,2.324l-2.133,3.725c-1.273-0.86-2.642-1.528-3.948-1.878v4.839c4.84,1.306,6.909,3.247,6.909,6.813   v0.063c0,3.566-2.737,5.858-6.749,6.272v3.152h-3.311V42.016z M48.386,28.135v-4.33c-1.56,0.191-2.196,0.955-2.196,1.974v0.063   C46.189,26.862,46.635,27.499,48.386,28.135z M51.378,33.643V38.1c1.498-0.223,2.261-0.892,2.261-2.038v-0.064   C53.639,34.948,53.098,34.28,51.378,33.643z"/></g><path d="M15.602,5.897v89.41h67.058V5.897H15.602z M78.3,89.495H19.96V11.709H78.3V89.495z"/><rect x="30.291" y="53.786" width="39.802" height="4.312"/><rect x="30.291" y="61.746" width="39.802" height="4.313"/><rect x="30.291" y="69.707" width="39.802" height="4.312"/><rect x="30.291" y="77.667" width="39.802" height="4.312"/></svg>